<?xml version="1.0" encoding="UTF-8" standalone="no"?>
<svg
   xmlns:dc="http://purl.org/dc/elements/1.1/"
   xmlns:cc="http://creativecommons.org/ns#"
   xmlns:rdf="http://www.w3.org/1999/02/22-rdf-syntax-ns#"
   xmlns:svg="http://www.w3.org/2000/svg"
   xmlns="http://www.w3.org/2000/svg"
   xmlns:xlink="http://www.w3.org/1999/xlink"
   xmlns:sodipodi="http://sodipodi.sourceforge.net/DTD/sodipodi-0.dtd"
   xmlns:inkscape="http://www.inkscape.org/namespaces/inkscape"
   version="1.1"
   width="128"
   height="128"
   id="svg4379"
   inkscape:version="0.91 r13725"
   sodipodi:docname="add-repo.svg">
  <sodipodi:namedview
     pagecolor="#ffffff"
     bordercolor="#666666"
     borderopacity="1"
     objecttolerance="10"
     gridtolerance="10"
     guidetolerance="10"
     inkscape:pageopacity="0"
     inkscape:pageshadow="2"
     inkscape:window-width="3200"
     inkscape:window-height="1688"
     id="namedview52"
     showgrid="false"
     inkscape:zoom="11.015625"
     inkscape:cx="60.368794"
     inkscape:cy="60.368794"
     inkscape:window-x="0"
     inkscape:window-y="60"
     inkscape:window-maximized="1"
     inkscape:current-layer="svg4379" />
  <defs
     id="defs4381">
    <linearGradient
       inkscape:collect="always"
       id="linearGradient4567">
      <stop
         style="stop-color:#f9f7fa;stop-opacity:1"
         offset="0"
         id="stop4569" />
      <stop
         style="stop-color:#eceaf5;stop-opacity:1"
         offset="1"
         id="stop4571" />
    </linearGradient>
    <linearGradient
       x1="23.99999"
       y1="4.999989"
       x2="23.99999"
       y2="43"
       id="linearGradient3159"
       xlink:href="#linearGradient3924-776"
       gradientUnits="userSpaceOnUse"
       gradientTransform="matrix(2.7297298,0,0,2.7297298,-1.5135124,1.4865139)" />
    <linearGradient
       id="linearGradient3924-776">
      <stop
         id="stop3124"
         style="stop-color:#ffffff;stop-opacity:1"
         offset="0" />
      <stop
         id="stop3126"
         style="stop-color:#ffffff;stop-opacity:0.23529412"
         offset="0.06316455" />
      <stop
         id="stop3128"
         style="stop-color:#ffffff;stop-opacity:0.15686275"
         offset="0.95056331" />
      <stop
         id="stop3130"
         style="stop-color:#ffffff;stop-opacity:0.39215687"
         offset="1" />
    </linearGradient>
    <radialGradient
       gradientTransform="matrix(2.003784,0,0,1.4,27.98813,-17.4)"
       gradientUnits="userSpaceOnUse"
       xlink:href="#linearGradient3688-166-749-5"
       id="radialGradient4093"
       fy="43.5"
       fx="4.9929786"
       r="2.5"
       cy="43.5"
       cx="4.9929786" />
    <linearGradient
       id="linearGradient3688-166-749-5">
      <stop
         offset="0"
         style="stop-color:#181818;stop-opacity:1"
         id="stop2883-0" />
      <stop
         offset="1"
         style="stop-color:#181818;stop-opacity:0"
         id="stop2885-5" />
    </linearGradient>
    <radialGradient
       gradientTransform="matrix(2.003784,0,0,1.4,-20.01187,-104.4)"
       gradientUnits="userSpaceOnUse"
       xlink:href="#linearGradient3688-166-749-5"
       id="radialGradient4095"
       fy="43.5"
       fx="4.9929786"
       r="2.5"
       cy="43.5"
       cx="4.9929786" />
    <linearGradient
       gradientUnits="userSpaceOnUse"
       xlink:href="#linearGradient3702-501-757-0"
       id="linearGradient4097"
       y2="39.999443"
       x2="25.058096"
       y1="47.027729"
       x1="25.058096" />
    <linearGradient
       id="linearGradient3702-501-757-0">
      <stop
         offset="0"
         style="stop-color:#181818;stop-opacity:0"
         id="stop2895-0" />
      <stop
         offset="0.5"
         style="stop-color:#181818;stop-opacity:1"
         id="stop2897-2" />
      <stop
         offset="1"
         style="stop-color:#181818;stop-opacity:0"
         id="stop2899-6" />
    </linearGradient>
    <radialGradient
       gradientTransform="matrix(1.5563924,0,0,0.16978827,70.270354,102.13178)"
       gradientUnits="userSpaceOnUse"
       xlink:href="#linearGradient3811"
       id="radialGradient4432"
       fy="93.467628"
       fx="-4.0287771"
       r="35.338131"
       cy="93.467628"
       cx="-4.0287771" />
    <linearGradient
       id="linearGradient3811">
      <stop
         offset="0"
         style="stop-color:#000000;stop-opacity:1"
         id="stop3813" />
      <stop
         offset="1"
         style="stop-color:#000000;stop-opacity:0"
         id="stop3815" />
    </linearGradient>
    <linearGradient
       inkscape:collect="always"
       xlink:href="#linearGradient4567"
       id="linearGradient4573"
       x1="59.568794"
       y1="16.88936"
       x2="59.568794"
       y2="117.92766"
       gradientUnits="userSpaceOnUse" />
  </defs>
  <metadata
     id="metadata4384">
    <rdf:RDF>
      <cc:Work
         rdf:about="">
        <dc:format>image/svg+xml</dc:format>
        <dc:type
           rdf:resource="http://purl.org/dc/dcmitype/StillImage" />
        <dc:title></dc:title>
      </cc:Work>
    </rdf:RDF>
  </metadata>
  <path
     inkscape:connector-curvature="0"
     d="m 119,118.00149 a 55,6 0 0 1 -109.9999987,0 55,6 0 1 1 109.9999987,0 z"
     id="path3041"
     style="color:#000000;display:inline;overflow:visible;visibility:visible;opacity:0.1;fill:url(#radialGradient4432);fill-opacity:1;fill-rule:nonzero;stroke:none;stroke-width:1;marker:none;enable-background:accumulate" />
  <g
     style="opacity:0.15"
     id="g3712"
     transform="matrix(2.8421052,0,0,0.71428566,-4.2105338,87.430066)">
    <rect
       style="fill:url(#radialGradient4093);fill-opacity:1;stroke:none"
       id="rect2801"
       y="40"
       x="38"
       height="7"
       width="5" />
    <rect
       style="fill:url(#radialGradient4095);fill-opacity:1;stroke:none"
       id="rect3696"
       transform="scale(-1,-1)"
       y="-47"
       x="-10"
       height="7"
       width="5" />
    <rect
       style="fill:url(#linearGradient4097);fill-opacity:1;stroke:none"
       id="rect3700"
       y="40"
       x="10"
       height="7.0000005"
       width="28" />
  </g>
  <rect
     style="color:#000000;clip-rule:nonzero;display:inline;overflow:visible;visibility:visible;opacity:1;isolation:auto;mix-blend-mode:normal;color-interpolation:sRGB;color-interpolation-filters:linearRGB;solid-color:#000000;solid-opacity:1;fill:url(#linearGradient4573);fill-opacity:1;fill-rule:nonzero;stroke:#beb4d2;stroke-width:1;stroke-linecap:butt;stroke-linejoin:miter;stroke-miterlimit:4;stroke-dasharray:none;stroke-dashoffset:0;stroke-opacity:1;marker:none;color-rendering:auto;image-rendering:auto;shape-rendering:auto;text-rendering:auto;enable-background:accumulate"
     id="rect5505-21-3"
     y="15.5"
     x="12.5"
     ry="6.0545406"
     rx="6.0545406"
     height="103"
     width="103" />
  <rect
     style="opacity:1;fill:none;stroke:url(#linearGradient3159);stroke-width:1;stroke-linecap:round;stroke-linejoin:round;stroke-miterlimit:4;stroke-dasharray:none;stroke-dashoffset:0;stroke-opacity:1"
     id="rect6741-7"
     y="16.5"
     x="13.5"
     ry="5"
     rx="5"
     height="101"
     width="101" />
  <path
     inkscape:connector-curvature="0"
     id="path4690-8"
     d="m 60,40 c -0.71986,0 -1.31975,2.780369 -1.67188,6.753906 a 22,22 0 0 0 -5.3164,2.234376 c -3.0711,-2.573892 -5.47007,-4.12759 -5.98047,-3.617188 l -5.66016,5.660156 c -0.5104,0.510402 1.0433,2.909374 3.61719,5.980468 a 22,22 0 0 0 -2.21484,5.316407 C 38.78877,62.679914 36,63.278932 36,64 l 0,8 c 0,0.719863 2.78037,1.319749 6.75391,1.671876 A 22,22 0 0 0 44.98047,79 c -2.56804,3.065601 -4.11916,5.458961 -3.60938,5.968761 l 5.66016,5.660139 c 0.50931,0.509321 2.89966,-1.0381 5.96094,-3.60156 a 22,22 0 0 0 5.33593,2.19922 C 58.67991,93.211241 59.27893,96 60,96 l 8,0 c 0.719862,0 1.319748,-2.78036 1.671876,-6.7539 a 22,22 0 0 0 5.316406,-2.23438 c 3.071094,2.5739 5.470066,4.12758 5.980468,3.61718 l 5.660156,-5.660139 c 0.510402,-0.51042 -1.043296,-2.90938 -3.617188,-5.980479 a 22,22 0 0 0 2.214844,-5.316406 C 89.211232,73.320087 92,72.721068 92,72 l 0,-8 c 0,-0.719862 -2.780368,-1.319748 -6.753906,-1.671875 A 22,22 0 0 0 83.019532,57 c 2.56804,-3.065594 4.119162,-5.458962 3.609374,-5.96875 L 80.96875,45.371094 c -0.509306,-0.509306 -2.899662,1.038111 -5.960938,3.601562 A 22,22 0 0 0 69.671876,46.773438 C 69.320086,42.788768 68.721068,40 68,40 l -8,0 z m 4,18 A 10,10 0 0 1 74,68 10,10 0 0 1 64,78 10,10 0 0 1 54,68 10,10 0 0 1 64,58 Z"
     style="color:#000000;clip-rule:nonzero;display:inline;overflow:visible;visibility:visible;opacity:1;isolation:auto;mix-blend-mode:normal;color-interpolation:sRGB;color-interpolation-filters:linearRGB;solid-color:#000000;solid-opacity:1;fill:#f7f6fa;fill-opacity:1;fill-rule:nonzero;stroke:none;stroke-width:1;stroke-linecap:butt;stroke-linejoin:miter;stroke-miterlimit:4;stroke-dasharray:none;stroke-dashoffset:0;stroke-opacity:1;marker:none;color-rendering:auto;image-rendering:auto;shape-rendering:auto;text-rendering:auto;enable-background:accumulate" />
  <path
     inkscape:connector-curvature="0"
     id="path4690"
     d="m 60,39 c -0.71986,0 -1.31975,2.780369 -1.67188,6.753906 a 22,22 0 0 0 -5.3164,2.234376 c -3.0711,-2.573892 -5.47007,-4.12759 -5.98047,-3.617188 l -5.66016,5.660156 c -0.5104,0.510402 1.0433,2.909374 3.61719,5.980468 a 22,22 0 0 0 -2.21484,5.316407 C 38.78877,61.679914 36,62.278932 36,63 l 0,8 c 0,0.719863 2.78037,1.319749 6.75391,1.671876 A 22,22 0 0 0 44.98047,78 c -2.56804,3.065601 -4.11916,5.458961 -3.60938,5.968761 l 5.66016,5.660139 c 0.50931,0.509321 2.89966,-1.0381 5.96094,-3.60156 a 22,22 0 0 0 5.33593,2.19922 C 58.67991,92.211241 59.27893,95 60,95 l 8,0 c 0.719862,0 1.319748,-2.78036 1.671876,-6.7539 a 22,22 0 0 0 5.316406,-2.23438 c 3.071094,2.5739 5.470066,4.12758 5.980468,3.61718 l 5.660156,-5.660139 c 0.510402,-0.51042 -1.043296,-2.90938 -3.617188,-5.980479 a 22,22 0 0 0 2.214844,-5.316406 C 89.211232,72.320087 92,71.721068 92,71 l 0,-8 c 0,-0.719862 -2.780368,-1.319748 -6.753906,-1.671875 A 22,22 0 0 0 83.019532,56 c 2.56804,-3.065594 4.119162,-5.458962 3.609374,-5.96875 L 80.96875,44.371094 c -0.509306,-0.509306 -2.899662,1.038111 -5.960938,3.601562 A 22,22 0 0 0 69.671876,45.773438 C 69.320086,41.788768 68.721068,39 68,39 l -8,0 z m 4,18 A 10,10 0 0 1 74,67 10,10 0 0 1 64,77 10,10 0 0 1 54,67 10,10 0 0 1 64,57 Z"
     style="color:#000000;clip-rule:nonzero;display:inline;overflow:visible;visibility:visible;opacity:1;isolation:auto;mix-blend-mode:normal;color-interpolation:sRGB;color-interpolation-filters:linearRGB;solid-color:#000000;solid-opacity:1;fill:#d0c9e4;fill-opacity:1;fill-rule:nonzero;stroke:none;stroke-width:1;stroke-linecap:butt;stroke-linejoin:miter;stroke-miterlimit:4;stroke-dasharray:none;stroke-dashoffset:0;stroke-opacity:1;marker:none;color-rendering:auto;image-rendering:auto;shape-rendering:auto;text-rendering:auto;enable-background:accumulate;filter-blend-mode:normal;filter-gaussianBlur-deviation:0" />
</svg>
