<?xml version="1.0" encoding="UTF-8" standalone="no"?>
<!-- Created with Inkscape (http://www.inkscape.org/) -->

<svg
   xmlns:dc="http://purl.org/dc/elements/1.1/"
   xmlns:cc="http://creativecommons.org/ns#"
   xmlns:rdf="http://www.w3.org/1999/02/22-rdf-syntax-ns#"
   xmlns:svg="http://www.w3.org/2000/svg"
   xmlns="http://www.w3.org/2000/svg"
   xmlns:xlink="http://www.w3.org/1999/xlink"
   xmlns:sodipodi="http://sodipodi.sourceforge.net/DTD/sodipodi-0.dtd"
   xmlns:inkscape="http://www.inkscape.org/namespaces/inkscape"
   width="512"
   height="512"
   viewBox="0 0 511.99999 511.99998"
   id="svg2"
   version="1.1"
   inkscape:version="0.92.3 (2405546, 2018-03-11)"
   sodipodi:docname="apple-touch-icon.svg"
   inkscape:export-filename="/home/daniel/Projects/houston/src/houston/public/images/apple-touch-icon.png"
   inkscape:export-xdpi="90"
   inkscape:export-ydpi="90">
  <defs
     id="defs4">
    <linearGradient
       id="linearGradient4896"
       inkscape:collect="always">
      <stop
         id="stop4898"
         offset="0"
         style="stop-color:#a56de2;stop-opacity:1" />
      <stop
         id="stop4900"
         offset="1"
         style="stop-color:#7239b3;stop-opacity:1" />
    </linearGradient>
    <linearGradient
       inkscape:collect="always"
       xlink:href="#linearGradient4896"
       id="linearGradient4144"
       x1="512"
       y1="1052.3623"
       x2="0"
       y2="540.36224"
       gradientUnits="userSpaceOnUse" />
    <filter
       inkscape:collect="always"
       style="color-interpolation-filters:sRGB"
       id="filter4430-2-0"
       x="-0.01125"
       width="1.0225"
       y="-0.012857143"
       height="1.0257143">
      <feGaussianBlur
         inkscape:collect="always"
         stdDeviation="0.075"
         id="feGaussianBlur4432-9-7" />
    </filter>
    <filter
       inkscape:collect="always"
       style="color-interpolation-filters:sRGB"
       id="filter4902"
       x="-0.005625"
       width="1.01125"
       y="-0.0064285714"
       height="1.0128571">
      <feGaussianBlur
         inkscape:collect="always"
         stdDeviation="0.0375"
         id="feGaussianBlur4904" />
    </filter>
    <filter
       inkscape:collect="always"
       style="color-interpolation-filters:sRGB"
       id="filter4906"
       x="-0.05625"
       width="1.1125"
       y="-0.064285714"
       height="1.1285714">
      <feGaussianBlur
         inkscape:collect="always"
         stdDeviation="0.375"
         id="feGaussianBlur4908" />
    </filter>
  </defs>
  <sodipodi:namedview
     id="base"
     pagecolor="#ffffff"
     bordercolor="#666666"
     borderopacity="1.0"
     inkscape:pageopacity="0.0"
     inkscape:pageshadow="2"
     inkscape:zoom="0.5"
     inkscape:cx="223"
     inkscape:cy="256"
     inkscape:document-units="px"
     inkscape:current-layer="layer1"
     showgrid="false"
     units="px"
     inkscape:window-width="3200"
     inkscape:window-height="1674"
     inkscape:window-x="0"
     inkscape:window-y="60"
     inkscape:window-maximized="1" />
  <metadata
     id="metadata7">
    <rdf:RDF>
      <cc:Work
         rdf:about="">
        <dc:format>image/svg+xml</dc:format>
        <dc:type
           rdf:resource="http://purl.org/dc/dcmitype/StillImage" />
        <dc:title />
      </cc:Work>
    </rdf:RDF>
  </metadata>
  <g
     inkscape:label="Layer 1"
     inkscape:groupmode="layer"
     id="layer1"
     transform="translate(0,-540.36224)">
    <rect
       style="color:#000000;clip-rule:nonzero;display:inline;overflow:visible;visibility:visible;opacity:1;isolation:auto;mix-blend-mode:normal;color-interpolation:sRGB;color-interpolation-filters:linearRGB;solid-color:#000000;solid-opacity:1;fill:url(#linearGradient4144);fill-opacity:1;fill-rule:nonzero;stroke:none;stroke-width:1;stroke-linecap:butt;stroke-linejoin:miter;stroke-miterlimit:4;stroke-dasharray:none;stroke-dashoffset:0;stroke-opacity:1;marker:none;color-rendering:auto;image-rendering:auto;shape-rendering:auto;text-rendering:auto;enable-background:accumulate"
       id="rect4136"
       width="512"
       height="512"
       x="0"
       y="540.36224"
       rx="0.5"
       ry="0.5" />
    <g
       transform="matrix(20,0,0,20,95.999995,-20083.638)"
       id="layer1-7-5-9-4-8"
       style="opacity:0.1;fill:#000000;filter:url(#filter4906)">
      <g
         transform="translate(-4,4)"
         id="g9221-3-2-5-4"
         style="fill:#000000;fill-rule:evenodd">
        <path
           d="m 5,1033.4 -1,3 16,0 -1,-3 z"
           style="color:#000000;isolation:auto;mix-blend-mode:normal;solid-color:#000000;fill:#000000;color-rendering:auto;image-rendering:auto;shape-rendering:auto"
           id="rect8928-5-2-0-3"
           inkscape:connector-curvature="0" />
        <path
           transform="translate(0,1036.4)"
           d="m 5,4 0,6 c 0,0 0,1 1,1 l 5,0 7,0 c 1,0 1,-1 1,-1 l 0,-6 -1,0 0,6 -12,0 0,-6 z"
           style="color:#000000;isolation:auto;mix-blend-mode:normal;solid-color:#000000;fill:#000000;color-rendering:auto;image-rendering:auto;shape-rendering:auto"
           id="rect8981-6-8-3-1"
           inkscape:connector-curvature="0" />
        <path
           d="m 4,1036.4 0,1 c 0,2 2,2 2,2 1.108,0 2,-0.892 2,-2 0,1.108 0.892,2 2,2 1.108,0 2,-0.892 2,-2 0,1.108 0.892,2 2,2 1.108,0 2,-0.892 2,-2 0,1.108 0.892,2 2,2 0,0 2,0 2,-2 l 0,-1 z"
           style="color:#000000;isolation:auto;mix-blend-mode:normal;solid-color:#000000;fill:#000000;color-rendering:auto;image-rendering:auto;shape-rendering:auto"
           id="rect9141-2-9-6-4"
           inkscape:connector-curvature="0" />
        <path
           transform="translate(0,1036.4)"
           d="M 14.5,5 C 13.669,5 13,5.669 13,6.5 l 0,4.5 3,0 0,-4.5 C 16,5.669 15.331,5 14.5,5 Z"
           style="color:#000000;isolation:auto;mix-blend-mode:normal;solid-color:#000000;fill:#000000;color-rendering:auto;image-rendering:auto;shape-rendering:auto"
           id="rect9214-9-7-1-9"
           inkscape:connector-curvature="0" />
        <rect
           x="8"
           y="1041.4"
           width="3"
           height="3"
           style="color:#000000;isolation:auto;mix-blend-mode:normal;solid-color:#000000;fill:#000000;color-rendering:auto;image-rendering:auto;shape-rendering:auto"
           id="rect9219-1-3-0-2" />
      </g>
    </g>
    <g
       transform="matrix(20,0,0,20,95.999994,-20087.638)"
       id="layer1-7-5-6-0"
       style="color:#000000;clip-rule:nonzero;display:inline;overflow:visible;visibility:visible;opacity:0.2;isolation:auto;mix-blend-mode:normal;color-interpolation:sRGB;color-interpolation-filters:linearRGB;solid-color:#000000;solid-opacity:1;fill:#000000;fill-opacity:1;fill-rule:evenodd;stroke-width:1;stroke-linecap:butt;stroke-linejoin:miter;stroke-miterlimit:4;stroke-dasharray:none;stroke-dashoffset:0;stroke-opacity:1;color-rendering:auto;image-rendering:auto;shape-rendering:auto;text-rendering:auto;enable-background:accumulate;filter:url(#filter4902)">
      <g
         transform="translate(-4,4)"
         id="g9221-3-3-6"
         style="color:#000000;clip-rule:nonzero;display:inline;overflow:visible;visibility:visible;isolation:auto;mix-blend-mode:normal;color-interpolation:sRGB;color-interpolation-filters:linearRGB;solid-color:#000000;solid-opacity:1;fill:#000000;fill-opacity:1;fill-rule:evenodd;stroke-width:1;stroke-linecap:butt;stroke-linejoin:miter;stroke-miterlimit:4;stroke-dasharray:none;stroke-dashoffset:0;stroke-opacity:1;filter:url(#filter4430-2-0);color-rendering:auto;image-rendering:auto;shape-rendering:auto;text-rendering:auto;enable-background:accumulate">
        <path
           d="m 5,1033.4 -1,3 16,0 -1,-3 z"
           style="color:#000000;clip-rule:nonzero;display:inline;overflow:visible;visibility:visible;isolation:auto;mix-blend-mode:normal;color-interpolation:sRGB;color-interpolation-filters:linearRGB;solid-color:#000000;solid-opacity:1;fill:#000000;fill-opacity:1;fill-rule:evenodd;stroke-width:1;stroke-linecap:butt;stroke-linejoin:miter;stroke-miterlimit:4;stroke-dasharray:none;stroke-dashoffset:0;stroke-opacity:1;filter:url(#filter4430-2-0);color-rendering:auto;image-rendering:auto;shape-rendering:auto;text-rendering:auto;enable-background:accumulate"
           id="rect8928-5-20-8"
           inkscape:connector-curvature="0" />
        <path
           transform="translate(0,1036.4)"
           d="m 5,4 0,6 c 0,0 0,1 1,1 l 5,0 7,0 c 1,0 1,-1 1,-1 l 0,-6 -1,0 0,6 -12,0 0,-6 z"
           style="color:#000000;clip-rule:nonzero;display:inline;overflow:visible;visibility:visible;isolation:auto;mix-blend-mode:normal;color-interpolation:sRGB;color-interpolation-filters:linearRGB;solid-color:#000000;solid-opacity:1;fill:#000000;fill-opacity:1;fill-rule:evenodd;stroke-width:1;stroke-linecap:butt;stroke-linejoin:miter;stroke-miterlimit:4;stroke-dasharray:none;stroke-dashoffset:0;stroke-opacity:1;filter:url(#filter4430-2-0);color-rendering:auto;image-rendering:auto;shape-rendering:auto;text-rendering:auto;enable-background:accumulate"
           id="rect8981-6-6-9"
           inkscape:connector-curvature="0" />
        <path
           d="m 4,1036.4 0,1 c 0,2 2,2 2,2 1.108,0 2,-0.892 2,-2 0,1.108 0.892,2 2,2 1.108,0 2,-0.892 2,-2 0,1.108 0.892,2 2,2 1.108,0 2,-0.892 2,-2 0,1.108 0.892,2 2,2 0,0 2,0 2,-2 l 0,-1 z"
           style="color:#000000;clip-rule:nonzero;display:inline;overflow:visible;visibility:visible;isolation:auto;mix-blend-mode:normal;color-interpolation:sRGB;color-interpolation-filters:linearRGB;solid-color:#000000;solid-opacity:1;fill:#000000;fill-opacity:1;fill-rule:evenodd;stroke-width:1;stroke-linecap:butt;stroke-linejoin:miter;stroke-miterlimit:4;stroke-dasharray:none;stroke-dashoffset:0;stroke-opacity:1;filter:url(#filter4430-2-0);color-rendering:auto;image-rendering:auto;shape-rendering:auto;text-rendering:auto;enable-background:accumulate"
           id="rect9141-2-1-2"
           inkscape:connector-curvature="0" />
        <path
           transform="translate(0,1036.4)"
           d="M 14.5,5 C 13.669,5 13,5.669 13,6.5 l 0,4.5 3,0 0,-4.5 C 16,5.669 15.331,5 14.5,5 Z"
           style="color:#000000;clip-rule:nonzero;display:inline;overflow:visible;visibility:visible;isolation:auto;mix-blend-mode:normal;color-interpolation:sRGB;color-interpolation-filters:linearRGB;solid-color:#000000;solid-opacity:1;fill:#000000;fill-opacity:1;fill-rule:evenodd;stroke-width:1;stroke-linecap:butt;stroke-linejoin:miter;stroke-miterlimit:4;stroke-dasharray:none;stroke-dashoffset:0;stroke-opacity:1;filter:url(#filter4430-2-0);color-rendering:auto;image-rendering:auto;shape-rendering:auto;text-rendering:auto;enable-background:accumulate"
           id="rect9214-9-5-6"
           inkscape:connector-curvature="0" />
        <rect
           x="8"
           y="1041.4"
           width="3"
           height="3"
           style="color:#000000;clip-rule:nonzero;display:inline;overflow:visible;visibility:visible;isolation:auto;mix-blend-mode:normal;color-interpolation:sRGB;color-interpolation-filters:linearRGB;solid-color:#000000;solid-opacity:1;fill:#000000;fill-opacity:1;fill-rule:evenodd;stroke-width:1;stroke-linecap:butt;stroke-linejoin:miter;stroke-miterlimit:4;stroke-dasharray:none;stroke-dashoffset:0;stroke-opacity:1;filter:url(#filter4430-2-0);color-rendering:auto;image-rendering:auto;shape-rendering:auto;text-rendering:auto;enable-background:accumulate"
           id="rect9219-1-5-6" />
      </g>
    </g>
    <path
       inkscape:connector-curvature="0"
       style="color:#000000;clip-rule:nonzero;display:inline;overflow:visible;visibility:visible;isolation:auto;mix-blend-mode:normal;color-interpolation:sRGB;color-interpolation-filters:linearRGB;solid-color:#000000;solid-opacity:1;fill:#ffffff;fill-opacity:1;fill-rule:nonzero;stroke:none;stroke-width:0.05;stroke-linecap:butt;stroke-linejoin:miter;stroke-miterlimit:4;stroke-dasharray:none;stroke-dashoffset:0;stroke-opacity:1;marker:none;color-rendering:auto;image-rendering:auto;shape-rendering:auto;text-rendering:auto;enable-background:accumulate"
       d="m 116,656.36219 -20,60 0,20 c 0,40 40,40 40,40 22.16,0 40,-17.84 40,-40 0,22.16 17.84,40 40,40 22.16,0 40,-17.84 40,-40 0,22.16 17.84,40 40,40 22.16,0 40,-17.84 40,-40 0,22.16 17.84,40 40,40 0,0 40,0 40,-40 l 0,-20 -20,-60 -280,0 z m 0,140 0,120 c 0,0 0,20 20,20 l 100,0 140,0 c 20,0 20,-20 20,-20 l 0,-120 -20,0 0,120 -40,0 0,-70 c 0,-16.62 -13.38,-30 -30,-30 -16.62,0 -30,13.38 -30,30 l 0,70 -140,0 0,-120 -20,0 z m 60,20 0,60 60,0 0,-60 -60,0 z"
       id="rect8928-6-4" />
  </g>
</svg>
