<?xml version="1.0" encoding="UTF-8" standalone="no"?>
<svg
   xmlns:dc="http://purl.org/dc/elements/1.1/"
   xmlns:cc="http://creativecommons.org/ns#"
   xmlns:rdf="http://www.w3.org/1999/02/22-rdf-syntax-ns#"
   xmlns:svg="http://www.w3.org/2000/svg"
   xmlns="http://www.w3.org/2000/svg"
   xmlns:sodipodi="http://sodipodi.sourceforge.net/DTD/sodipodi-0.dtd"
   xmlns:inkscape="http://www.inkscape.org/namespaces/inkscape"
   height="149.80078"
   width="441.98395"
   xml:space="preserve"
   viewBox="0 0 441.98395 149.80078"
   y="0px"
   x="0px"
   id="Layer_1"
   version="1.1"
   sodipodi:docname="github_logo.svg"
   inkscape:version="0.92+devel (unknown)"><sodipodi:namedview
   pagecolor="#ffffff"
   bordercolor="#666666"
   inkscape:document-rotation="0"
   borderopacity="1"
   objecttolerance="10"
   gridtolerance="10"
   guidetolerance="10"
   inkscape:pageopacity="0"
   inkscape:pageshadow="2"
   inkscape:window-width="1600"
   inkscape:window-height="837"
   id="namedview7"
   showgrid="false"
   inkscape:zoom="2.4141148"
   inkscape:cx="221.4062"
   inkscape:cy="74.900391"
   inkscape:window-x="0"
   inkscape:window-y="30"
   inkscape:window-maximized="1"
   inkscape:current-layer="Layer_1" /><metadata
   id="metadata24"><rdf:RDF><cc:Work
       rdf:about=""><dc:format>image/svg+xml</dc:format><dc:type
         rdf:resource="http://purl.org/dc/dcmitype/StillImage" /><dc:title /></cc:Work></rdf:RDF></metadata><defs
   id="defs22" />
<style
   id="style2"
   type="text/css">
	.st0{fill-rule:evenodd;clip-rule:evenodd;}
</style>

<path
   id="path30"
   d="M 50.22798,3.7725291 C 25.43435,3.7725291 0,14.32056 0,65.031858 c 0,50.711302 29.11925,58.268272 53.65764,58.268272 20.31716,0 32.64288,-8.68201 32.64288,-8.68201 0.50802,-0.28098 0.56262,-0.99118 0.56262,-1.31758 V 56.668019 c 0,-0.959597 -0.77623,-1.738198 -1.73461,-1.738198 H 47.98827 c -0.95838,0 -1.7364,0.778601 -1.7364,1.738198 v 18.156705 c 0,0.958365 0.77802,1.739994 1.7364,1.739994 h 14.48798 v 22.560624 c 0,0 -3.25358,1.109058 -12.24827,1.109058 -10.61077,0 -25.43483,-3.878392 -25.43483,-36.475183 0,-32.601696 15.43596,-36.89221 29.92683,-36.89221 12.54467,0 17.94907,2.20758 21.38861,3.271478 1.0811,0.331319 2.07973,-0.742651 2.07973,-1.702247 L 82.3298,10.89069 c 0,-0.447894 -0.15099,-0.9884214 -0.66148,-1.3553253 C 80.27187,8.5401818 71.75136,3.7725291 50.22798,3.7725291 Z M 196.9394,8.1009459 c -0.95099,0 -1.7274,0.7814536 -1.7274,1.7471846 V 119.27908 c 0,0.96573 0.77641,1.75079 1.7274,1.75079 h 20.91049 c 0.95716,0 1.72561,-0.78506 1.72561,-1.75079 V 72.471776 h 32.59796 c 0,0 -0.058,46.803624 -0.058,46.807304 0,0.96573 0.7758,1.75079 1.7329,1.75079 h 20.9608 c 0.9585,0 1.7249,-0.78506 1.7273,-1.75079 V 9.8481305 c 0,-0.965731 -0.766,-1.7471846 -1.7256,-1.7471846 h -20.9121 c -0.9548,0 -1.7311,0.7814536 -1.7311,1.7471846 l 0.011,40.4135425 H 219.57534 V 9.8481305 c 0,-0.965731 -0.76844,-1.7471846 -1.72561,-1.7471846 z m 173.29126,0 c -0.9535,0 -1.7274,0.7814536 -1.7274,1.7471846 V 119.27908 c 0,0.96573 0.7751,1.75079 1.7309,1.75079 h 14.551 c 0.6552,0 1.1502,-0.33784 1.5171,-0.9293 0.362,-0.58903 0.8844,-5.04563 0.8844,-5.04563 0,0 8.5742,8.12654 24.8075,8.12654 19.0594,0 29.9898,-9.66679 29.9898,-43.397411 0,-33.73186 -17.458,-38.139689 -29.2529,-38.139689 -11.7861,0 -19.8013,5.259535 -19.8013,5.259535 V 9.8481305 c 0,-0.965731 -0.7734,-1.7471846 -1.7257,-1.7471846 z M 111.10624,10.592301 c -7.44115,0 -13.48317,6.084875 -13.48317,13.614384 0,7.523375 6.04202,13.625169 13.48317,13.625169 7.44851,0 13.48495,-6.101794 13.48495,-13.625169 0,-7.529509 -6.03644,-13.614384 -13.48495,-13.614384 z m 33.69442,11.435795 c -0.83198,0 -1.27623,0.365945 -1.27623,1.164791 v 21.415599 c 0,0 -10.7142,2.585301 -11.4394,2.795138 -0.7203,0.208608 -1.25107,0.874156 -1.25107,1.668094 V 62.52792 c 0,0.968186 0.77331,1.748981 1.72922,1.748981 h 10.96125 v 32.37686 c 0,24.047549 16.86655,26.409099 28.24795,26.409099 5.20168,0 11.42431,-1.67 12.45141,-2.04918 0.62091,-0.22823 0.98142,-0.87226 0.98142,-1.56923 l 0.0179,-14.80613 c 0,-0.9645 -0.81673,-1.7454 -1.73461,-1.7454 -0.91541,0 -3.25279,0.37209 -5.66037,0.37209 -7.70619,0 -10.31594,-3.581587 -10.31594,-8.22003 0,-4.633551 -0.003,-30.768079 -0.003,-30.768079 h 15.68873 c 0.95591,0 1.73102,-0.780795 1.73102,-1.748981 V 45.672616 c 0,-0.965733 -0.77511,-1.74359 -1.73102,-1.74359 h -15.68693 c 0,0 -0.0236,-20.719877 -0.0236,-20.723557 0,-0.785347 -0.40537,-1.177373 -1.3122,-1.177373 z m -44.28179,21.909917 c -0.95593,0 -1.81189,0.986544 -1.81189,1.944912 v 72.371585 c 0,2.12656 1.32532,2.75917 3.03958,2.75917 h 18.78223 c 2.06153,0 2.56687,-1.01159 2.56687,-2.79334 V 96.19539 45.681604 c 0,-0.959598 -0.7733,-1.743591 -1.72919,-1.743591 z m 188.00389,0.163575 c -0.9496,0 -1.7293,0.786273 -1.7293,1.750779 v 50.33583 c 0,21.762683 12.1294,27.084953 28.8143,27.084953 13.6895,0 24.7267,-7.56034 24.7267,-7.56034 0,0 0.524,3.98542 0.7621,4.45783 0.2368,0.4712 0.858,0.94729 1.5278,0.94729 l 13.3988,-0.0593 c 0.9497,0 1.7292,-0.78637 1.7292,-1.74717 l -0.012,-73.459084 c 0,-0.964503 -0.7738,-1.750779 -1.731,-1.750779 h -20.7505 c -0.9509,0 -1.7273,0.786276 -1.7273,1.750779 v 53.657681 c 0,0 -5.2722,3.857483 -12.7553,3.857483 -7.4816,0 -9.4673,-3.396941 -9.4673,-10.723994 V 45.852357 c 0,-0.964503 -0.774,-1.750779 -1.7275,-1.750779 z m 117.4461,17.489824 c 6.3846,0.227645 11.8979,3.905896 11.8979,19.504843 0,18.797993 -3.2502,22.509055 -13.3198,22.204725 -7.198,-0.21844 -12.0811,-3.485395 -12.0811,-3.485395 V 65.161279 c 0,0 4.8161,-2.952335 10.7259,-3.47999 0.9342,-0.08359 1.8651,-0.122391 2.7771,-0.08987 z"
   style="fill:#4c158a;fill-opacity:1;fill-rule:nonzero;stroke:none;stroke-width:0.1227104" /></svg>