<?xml version="1.0" encoding="UTF-8" standalone="no"?>
<!-- Generator: Adobe Illustrator 20.1.0, SVG Export Plug-In . SVG Version: 6.00 Build 0)  -->

<svg
   xmlns:dc="http://purl.org/dc/elements/1.1/"
   xmlns:cc="http://creativecommons.org/ns#"
   xmlns:rdf="http://www.w3.org/1999/02/22-rdf-syntax-ns#"
   xmlns:svg="http://www.w3.org/2000/svg"
   xmlns="http://www.w3.org/2000/svg"
   xmlns:sodipodi="http://sodipodi.sourceforge.net/DTD/sodipodi-0.dtd"
   xmlns:inkscape="http://www.inkscape.org/namespaces/inkscape"
   version="1.1"
   id="Layer_1"
   x="0px"
   y="0px"
   viewBox="0 0 360 149.80078"
   xml:space="preserve"
   sodipodi:docname="stripe_logo.svg"
   width="360"
   height="149.80078"
   inkscape:version="0.92+devel (unknown)"><metadata
   id="metadata24"><rdf:RDF><cc:Work
       rdf:about=""><dc:format>image/svg+xml</dc:format><dc:type
         rdf:resource="http://purl.org/dc/dcmitype/StillImage" /><dc:title></dc:title></cc:Work></rdf:RDF></metadata><defs
   id="defs22" /><sodipodi:namedview
   pagecolor="#ffffff"
   bordercolor="#666666"
   inkscape:document-rotation="0"
   borderopacity="1"
   objecttolerance="10"
   gridtolerance="10"
   guidetolerance="10"
   inkscape:pageopacity="0"
   inkscape:pageshadow="2"
   inkscape:window-width="1600"
   inkscape:window-height="837"
   id="namedview20"
   showgrid="false"
   inkscape:zoom="0.52808989"
   inkscape:cx="311.36968"
   inkscape:cy="74.55078"
   inkscape:window-x="0"
   inkscape:window-y="30"
   inkscape:window-maximized="1"
   inkscape:current-layer="Layer_1"
   fit-margin-top="0"
   fit-margin-left="0"
   fit-margin-right="0"
   fit-margin-bottom="0"
   showguides="false"
   inkscape:guide-bbox="true"><sodipodi:guide
     position="746.12162,29.323125"
     orientation="0,1"
     id="guide878" /><sodipodi:guide
     position="524.88386,116.49208"
     orientation="0,1"
     id="guide880" /><sodipodi:guide
     position="670.34042,149.59574"
     orientation="0,1"
     id="guide882" /></sodipodi:namedview>
<style
   type="text/css"
   id="style2">
	.st0{fill-rule:evenodd;clip-rule:evenodd;}
</style>
<path
   d="m 194.90039,0 -25.09961,5.300781 v 20.398438 l 25.09961,-5.398438 z m -102,11.599609 L 68.5,16.800781 68.4004,96.90039 c 0,14.8 11.10039,25.69922 25.90039,25.69922 8.2,0 14.2,-1.49883 17.5,-3.29883 V 99 c -3.2,1.3 -19,5.89961 -19,-8.90039 V 54.599609 h 19 V 33.300781 h -19 z m -59.099609,20 C 13.500781,31.599609 0,42.200391 0,59.900391 0,87.50039 38,83.1 38,95 c 0,4.6 -3.999609,6.09961 -9.599609,6.09961 -8.3,0 -18.900782,-3.4 -27.300782,-8 v 23.80078 c 9.3,4 18.700782,5.69922 27.300782,5.69922 C 49.20039,122.59961 63.5,112.30039 63.5,94.40039 63.4,64.60039 25.300781,69.89922 25.300781,58.699219 c 0,-3.9 3.2,-5.398438 8.5,-5.398438 7.6,0 17.198829,2.298438 24.798829,6.398438 v -23.5 c -8.3,-3.3 -16.498829,-4.59961 -24.798829,-4.59961 z m 213.298829,0 c -9.8,0 -16.09961,4.600782 -19.59961,7.800782 l -1.30078,-6.201172 h -22 V 149.80078 l 25,-5.30078 0.10156,-28.30078 c 3.6,2.6 8.89922,6.30078 17.69922,6.30078 17.9,0 34.19922,-14.39961 34.19922,-46.09961 -0.1,-28.999999 -16.59961,-44.800781 -34.09961,-44.800781 z m 76.80078,0 c -23.8,0 -38.20117,20.19961 -38.20117,45.599611 0,30.1 17.00039,45.30078 41.40039,45.30078 11.9,0 20.90117,-2.7 27.70117,-6.5 V 96 c -6.8,3.4 -14.6,5.5 -24.5,5.5 -9.7,0 -18.30039,-3.39922 -19.40039,-15.19922 h 48.90039 c 0,-1.3 0.19922,-6.50039 0.19922,-8.90039 0,-25.599999 -12.39961,-45.800781 -36.09961,-45.800781 z m -166.63281,0.666016 c -4.72754,0.01172 -10.67969,1.683594 -14.36719,8.433594 l -1.59961,-7.398438 h -21.60156 v 87.499999 h 25 V 61.5 c 5.9,-7.7 15.9,-6.299219 19,-5.199219 v -23 c -1.2,-0.45 -3.59512,-1.042187 -6.43164,-1.035156 z m 12.5332,1.035156 v 87.499999 h 25.09961 V 33.300781 Z m 154,18.59961 c 6.1,0 12.59961,4.7 12.59961,15.999999 h -25.80078 c 0,-11.299999 6.90117,-15.999999 13.20117,-15.999999 z m -82.70117,1.90039 c 9.1,0 15.40039,10.198828 15.40039,23.298829 0,13.4 -6.20039,23.40039 -15.40039,23.40039 -5.9,0 -9.39883,-2.09922 -11.79883,-4.69922 l -0.10156,-37.101561 c 2.6,-2.9 6.20039,-4.898438 11.90039,-4.898438 z"
   id="path4"
   style="fill:#7a36b1;fill-opacity:1"
   inkscape:connector-curvature="0" />
</svg>