<?xml version="1.0" encoding="UTF-8" standalone="no"?>
<svg
   xmlns:dc="http://purl.org/dc/elements/1.1/"
   xmlns:cc="http://creativecommons.org/ns#"
   xmlns:rdf="http://www.w3.org/1999/02/22-rdf-syntax-ns#"
   xmlns:svg="http://www.w3.org/2000/svg"
   xmlns="http://www.w3.org/2000/svg"
   width="32.214195mm"
   height="7.3377776mm"
   viewBox="0 0 114.14479 26"
   id="svg2"
   version="1.1">
  <defs
     id="defs4" />
  <metadata
     id="metadata7">
    <rdf:RDF>
      <cc:Work
         rdf:about="">
        <dc:format>image/svg+xml</dc:format>
        <dc:type
           rdf:resource="http://purl.org/dc/dcmitype/StillImage" />
        <dc:title></dc:title>
      </cc:Work>
    </rdf:RDF>
  </metadata>
  <g
     id="layer1"
     transform="matrix(0.96032129,0,0,0.96032129,174.15497,-114.11169)">
    <path
       style="color:#fbc02d;clip-rule:nonzero;display:inline;overflow:visible;visibility:visible;opacity:0.9;isolation:auto;mix-blend-mode:normal;color-interpolation:sRGB;color-interpolation-filters:linearRGB;solid-color:#000000;solid-opacity:1;fill:#ffffff;fill-opacity:1;fill-rule:nonzero;stroke:none;stroke-width:1;stroke-linecap:butt;stroke-linejoin:miter;stroke-miterlimit:4;stroke-dasharray:none;stroke-dashoffset:0;stroke-opacity:1;marker:none;color-rendering:auto;image-rendering:auto;shape-rendering:auto;text-rendering:auto;enable-background:accumulate"
       d="m -167.37413,118.82676 -1.81619,0.0808 c -1.1196,0.0498 -2.24443,0.19336 -2.9325,0.37406 -3.32432,0.87308 -6.58215,3.05944 -8.13194,5.45725 -0.82866,1.2821 -1.10335,2.17125 -1.09582,3.54584 0.007,1.28267 0.32067,2.10188 1.01354,2.6469 0.44881,0.35303 1.63669,0.73214 2.29389,0.73214 l 0.46029,0 -0.19238,-0.5392 c -0.26174,-0.73344 -0.25252,-3.19575 0.0163,-4.33613 0.30997,-1.31495 1.00515,-2.54108 2.00491,-3.53631 0.82461,-0.82088 2.06979,-1.65924 2.77046,-1.86533 0.307,-0.0903 0.32343,-0.056 0.32184,0.66951 -0.004,1.60033 0.43905,20.25793 0.52038,21.93735 l 0.0854,1.76141 2.55814,0 c 2.30277,0 2.56833,-0.0252 2.65784,-0.25163 0.37084,-0.93831 9.85291,-26.37641 9.85291,-26.43298 0,-0.0391 -0.56003,-0.0524 -1.2444,-0.0296 l -1.24439,0.0413 -3.75227,10.89959 -3.75226,10.8993 -0.10532,-5.93859 c -0.0578,-3.26625 -0.14639,-8.22867 -0.19686,-11.02737 l -0.0916,-5.08849 z m 73.935239,1.78108 c -0.606041,-0.004 -4.937507,0.6419 -5.0958,0.77145 -0.09923,0.0812 -0.515498,1.76507 -0.925082,3.74217 -0.409584,1.97708 -0.801767,3.72411 -0.871717,3.8823 -0.12567,0.28413 -0.12744,0.28409 -0.13705,-0.009 -0.0117,-0.35789 -0.64799,-0.99337 -1.20535,-1.20395 -0.22263,-0.0841 -0.97608,-0.15306 -1.67435,-0.15306 -2.15806,0 -3.73677,0.66852 -5.25729,2.22593 -2.18355,2.23652 -3.68337,5.8284 -3.89717,9.33418 -0.078,1.27803 -0.13971,1.5346 -0.51478,2.13183 -0.54983,0.87552 -1.17575,1.26209 -2.04281,1.26209 -0.94414,0 -1.37836,-0.44204 -1.37836,-1.40334 0,-0.53554 1.5262,-8.14552 2.58146,-12.87078 l 0.12133,-0.5423 -2.60955,0.0391 -2.60953,0.0391 -0.12892,0.75967 -0.12889,0.75939 -0.26231,-0.58583 c -0.41022,-0.91627 -1.18174,-1.1939 -3.12994,-1.12616 -1.39721,0.0485 -1.61821,0.0966 -2.60841,0.56784 -3.29166,1.56632 -5.71046,5.79732 -6.18376,10.81618 -0.14138,1.49927 -0.17816,1.62405 -0.64649,2.19559 -0.53894,0.65769 -1.51006,1.20788 -2.13127,1.20788 -0.21483,0 -0.61089,-0.092 -0.88044,-0.20472 -0.38841,-0.16229 -0.51016,-0.31051 -0.58609,-0.7153 -0.12392,-0.66048 -0.11826,-0.69003 2.21721,-11.58961 1.09298,-5.1009 1.97518,-9.29095 1.96024,-9.31143 -0.0615,-0.0844 -5.15265,0.67535 -5.24745,0.78297 -0.0567,0.0643 -0.89339,3.83736 -1.85943,8.38467 -0.96603,4.54733 -1.88227,8.741 -2.03607,9.31904 -0.54761,2.05827 -1.46184,3.28946 -2.55055,3.43549 -1.23244,0.1653 -1.78382,-0.30085 -1.77294,-1.49884 0.004,-0.37791 0.59193,-3.44468 1.30787,-6.81507 0.71592,-3.3704 1.30196,-6.20125 1.30196,-6.29076 0,-0.11512 -0.75318,-0.16289 -2.57191,-0.16289 l -2.57191,0 -0.0971,0.64705 c -0.11324,0.7551 -0.22563,0.80745 -0.48361,0.22466 -0.30644,-0.69229 -1.17184,-1.01551 -2.71963,-1.01551 -2.31355,0 -3.74313,0.65713 -5.46706,2.51266 -2.05007,2.20658 -3.26482,5.08526 -3.66071,8.6745 -0.55826,5.06118 2.18918,8.04105 6.25565,6.78505 1.08799,-0.33605 2.39314,-1.24296 3.19172,-2.21749 l 0.55296,-0.67458 0.23647,0.76443 c 0.3241,1.04747 0.65122,1.50133 1.39885,1.93947 1.27819,0.74907 3.54487,0.5628 5.19802,-0.42687 0.42442,-0.25408 1.10643,-0.82982 1.5154,-1.2795 l 0.74339,-0.81752 0.25275,0.71137 c 0.65623,1.8477 2.55034,2.63711 5.01097,2.0883 1.36124,-0.3036 2.41713,-0.91563 3.52761,-2.04506 l 0.89362,-0.90906 0.27185,0.61447 c 0.38516,0.87072 1.10322,1.63479 1.95379,2.07876 0.6399,0.33401 0.90381,0.38278 2.09813,0.38643 1.24946,0.004 1.45078,-0.0361 2.36016,-0.46675 0.72385,-0.34278 1.28051,-0.76191 2.0473,-1.54124 1.03859,-1.05556 1.05435,-1.06483 1.13711,-0.67935 0.48677,2.26707 2.38522,3.22897 5.01885,2.54299 1.26371,-0.32915 2.16483,-0.88512 3.14791,-1.94199 l 0.88323,-0.94951 0.32185,0.66754 c 0.41412,0.8589 1.23178,1.6836 2.05067,2.06837 0.51846,0.24361 0.91852,0.30342 2.01304,0.30134 1.18094,-0.002 1.4797,-0.0556 2.20515,-0.39317 1.0517,-0.48945 1.84176,-1.1108 2.54718,-2.00321 0.58253,-0.73697 0.6216,-0.73774 0.77597,-0.0177 0.15389,0.7179 0.89029,1.61959 1.56314,1.91419 2.02113,0.88493 4.669949,0.20136 6.503623,-1.67801 0.840152,-0.86107 0.899859,-0.89638 0.979284,-0.57992 0.164538,0.65557 1.052466,1.61771 1.910539,2.07005 1.963837,1.03527 4.454426,1.01727 6.559517,-0.0472 1.067104,-0.53957 2.806308,-2.33468 3.534625,-3.64808 0.75577,-1.36292 1.407703,-3.36701 1.632786,-5.01969 l 0.174682,-1.28258 0.940521,-0.23029 c 0.51724,-0.12661 1.081065,-0.26779 1.253102,-0.31369 l 0.312849,-0.0834 -0.271281,0.87144 c -0.537166,1.7259 -0.748443,3.3065 -0.685252,5.12359 0.05261,1.51251 0.110336,1.83686 0.467595,2.62612 0.452686,1.00003 1.228446,1.79348 2.146442,2.1953 2.208298,0.9666 5.367984,0.64157 7.867941,-0.80937 1.119228,-0.64958 3.430046,-2.9288 4.286704,-4.22773 l 0.616437,-0.93463 -0.556613,-0.0424 c -0.52038,-0.0398 -0.632836,0.0305 -1.723223,1.07842 -1.978755,1.90164 -3.549948,2.59411 -5.559739,2.45031 -1.749593,-0.12519 -2.253367,-0.79849 -2.25372,-3.0117 -8.66e-4,-5.02797 2.983914,-11.25083 4.963527,-10.34887 0.568896,0.25921 0.737116,1.11806 0.46338,2.36466 -0.260985,1.18852 -0.198633,1.3144 0.738036,1.49012 0.659035,0.12363 1.411439,-0.27262 1.805229,-0.95092 0.433581,-0.74682 0.415784,-2.45691 -0.03375,-3.24085 -0.6278,-1.09497 -1.929147,-1.65431 -3.83399,-1.64768 -1.3313,0.005 -2.079552,0.18778 -3.383535,0.8279 -1.300046,0.63821 -3.033935,2.27177 -3.732327,3.51637 -0.442605,0.78878 -0.504225,0.83761 -1.400257,1.11437 -0.515407,0.15919 -1.244364,0.28926 -1.620151,0.28926 l -0.683276,0 -0.07861,-1.11437 c -0.148194,-2.1023 -1.008884,-3.58855 -2.436549,-4.20722 -1.549227,-0.67135 -3.979567,-0.48693 -5.840858,0.44316 -0.964348,0.48189 -2.495047,1.82349 -3.24255,2.8418 -1.460632,1.98976 -2.607991,5.27919 -2.766527,7.93197 -0.09913,1.65869 -0.134766,1.78644 -0.665866,2.39133 -0.763053,0.86907 -1.828458,1.14888 -2.685936,0.70546 -0.461658,-0.23874 -0.585891,-0.47949 -0.583861,-1.13121 7.23e-4,-0.25055 0.961153,-4.95279 2.134369,-10.44912 1.173214,-5.49633 2.116751,-10.01425 2.096735,-10.03993 -0.0046,-0.007 -0.0287,-0.0102 -0.06904,-0.0102 z m 9.772575,9.06374 c 0.633117,0.003 1.152188,0.44798 1.314045,1.31432 0.124604,0.66699 0.115786,0.69187 -0.408059,1.17193 -0.51547,0.47239 -0.535,0.52594 -0.535,1.45193 0,0.89671 0.02996,0.98719 0.444285,1.34129 l 0.444292,0.3794 -0.187045,0.98855 c -0.583156,3.08438 -2.147399,5.89795 -3.485746,6.2697 -0.287652,0.0799 -0.555278,0.1361 -0.594816,0.12469 -0.03953,-0.0114 -0.247627,-0.0473 -0.46226,-0.0801 -0.552301,-0.0841 -1.08333,-0.78061 -1.202825,-1.57747 -0.409088,-2.72799 1.105756,-8.13544 2.897673,-10.34324 0.569303,-0.70143 1.216831,-1.0435 1.775456,-1.04107 z m -65.909464,0.123 c 0.66885,0 1.35982,0.64235 1.35982,1.26434 0,0.78243 -1.73401,8.57713 -2.06978,9.30414 -0.40107,0.86843 -0.96927,1.46122 -1.74063,1.81506 -0.69276,0.31778 -1.16211,0.33019 -1.68782,0.045 -0.89259,-0.4843 -1.14209,-1.94246 -0.76811,-4.48807 0.42917,-2.92108 1.38596,-5.28407 2.73902,-6.76453 0.7858,-0.85979 1.36817,-1.17587 2.1675,-1.17587 z m 28.37105,0 c 0.65478,0 1.13143,0.27252 1.37526,0.78635 0.20647,0.43511 0.16925,0.68611 -0.71501,4.83322 -0.60426,2.83381 -1.06137,4.63867 -1.29831,5.12584 -0.71938,1.47902 -2.30763,2.2773 -3.3754,1.69654 -0.75385,-0.41002 -1.02957,-1.62623 -0.83717,-3.69357 0.42877,-4.60718 2.72488,-8.74838 4.85063,-8.74838 z m 18.92085,0.0273 c 0.16034,-0.002 0.32065,0.0169 0.48052,0.0565 0.39714,0.0981 0.60331,0.26128 0.80264,0.63526 l 0.26819,0.50326 -0.95906,4.52934 c -1.10885,5.23734 -1.28155,5.67672 -2.53203,6.43455 -0.76599,0.46423 -1.36062,0.56612 -1.93413,0.33139 -1.03738,-0.4246 -1.31921,-2.03428 -0.85684,-4.89668 0.31227,-1.93314 0.71069,-3.18681 1.47778,-4.65067 1.00569,-1.91922 2.13065,-2.93149 3.25293,-2.94289 z"
       id="rect3366" />
  </g>
</svg>
