<?xml version="1.0" encoding="UTF-8" standalone="no"?>
<svg
   xmlns:dc="http://purl.org/dc/elements/1.1/"
   xmlns:cc="http://creativecommons.org/ns#"
   xmlns:rdf="http://www.w3.org/1999/02/22-rdf-syntax-ns#"
   xmlns:svg="http://www.w3.org/2000/svg"
   xmlns="http://www.w3.org/2000/svg"
   xmlns:xlink="http://www.w3.org/1999/xlink"
   xmlns:sodipodi="http://sodipodi.sourceforge.net/DTD/sodipodi-0.dtd"
   xmlns:inkscape="http://www.inkscape.org/namespaces/inkscape"
   id="svg59"
   version="1.1"
   width="64"
   height="64"
   sodipodi:docname="vala.svg"
   inkscape:version="0.92.3 (2405546, 2018-03-11)">
  <sodipodi:namedview
     pagecolor="#ffffff"
     bordercolor="#666666"
     borderopacity="1"
     objecttolerance="10"
     gridtolerance="10"
     guidetolerance="10"
     inkscape:pageopacity="0"
     inkscape:pageshadow="2"
     inkscape:window-width="3200"
     inkscape:window-height="1674"
     id="namedview39"
     showgrid="false"
     showguides="false"
     inkscape:zoom="2"
     inkscape:cx="31.93535"
     inkscape:cy="32"
     inkscape:window-x="0"
     inkscape:window-y="60"
     inkscape:window-maximized="1"
     inkscape:current-layer="svg59" />
  <metadata
     id="metadata63">
    <rdf:RDF>
      <cc:Work
         rdf:about="">
        <dc:format>image/svg+xml</dc:format>
        <dc:type
           rdf:resource="http://purl.org/dc/dcmitype/StillImage" />
        <dc:title />
      </cc:Work>
    </rdf:RDF>
  </metadata>
  <defs
     id="defs37">
    <linearGradient
       id="linearGradient876">
      <stop
         id="stop872"
         offset="0"
         style="stop-color:#a56de2;stop-opacity:1" />
      <stop
         id="stop874"
         offset="1"
         style="stop-color:#7239b3;stop-opacity:1" />
    </linearGradient>
    <radialGradient
       r="2.5"
       gradientTransform="matrix(2.0038 0 0 1.4 27.988 -17.4)"
       cx="4.993"
       cy="43.5"
       gradientUnits="userSpaceOnUse"
       id="a">
      <stop
         id="stop2"
         offset="0"
         stop-color="#181818" />
      <stop
         id="stop4"
         offset="1"
         stop-opacity="0"
         stop-color="#181818" />
    </radialGradient>
    <radialGradient
       r="2.5"
       gradientTransform="matrix(2.0038 0 0 1.4 -20.012 -104.4)"
       cx="4.993"
       cy="43.5"
       gradientUnits="userSpaceOnUse"
       id="b">
      <stop
         id="stop7"
         offset="0"
         stop-color="#181818" />
      <stop
         id="stop9"
         offset="1"
         stop-opacity="0"
         stop-color="#181818" />
    </radialGradient>
    <linearGradient
       x1="25.058"
       y1="47.028"
       x2="25.058"
       gradientUnits="userSpaceOnUse"
       y2="39.999"
       id="c">
      <stop
         id="stop12"
         offset="0"
         stop-opacity="0"
         stop-color="#181818" />
      <stop
         id="stop14"
         offset=".5"
         stop-color="#181818" />
      <stop
         id="stop16"
         offset="1"
         stop-opacity="0"
         stop-color="#181818" />
    </linearGradient>
    <linearGradient
       x1="24"
       y1="5"
       gradientTransform="matrix(1.4324 0 0 1.4363 -2.378 -2.47)"
       x2="24"
       gradientUnits="userSpaceOnUse"
       y2="43"
       id="e">
      <stop
         id="stop19"
         offset="0"
         stop-color="#fff" />
      <stop
         id="stop21"
         offset=".063"
         stop-opacity=".235"
         stop-color="#fff" />
      <stop
         id="stop23"
         offset=".951"
         stop-opacity=".157"
         stop-color="#fff" />
      <stop
         id="stop25"
         offset="1"
         stop-opacity=".392"
         stop-color="#fff" />
    </linearGradient>
    <linearGradient
       gradientUnits="userSpaceOnUse"
       y2="59.328876"
       x2="31.293236"
       y1="5.0079265"
       x1="31.293236"
       id="linearGradient878"
       xlink:href="#linearGradient876" />
  </defs>
  <g
     id="g45"
     opacity=".6">
    <path
       id="path39"
       transform="matrix(1.579 0 0 .71429 -5.895 27.929)"
       d="M38 40h5v7h-5z"
       fill="url(#a)" />
    <path
       id="path41"
       d="M-10-47h5v7h-5z"
       fill="url(#b)"
       transform="matrix(-1.579 0 0 -.71429 -5.895 27.929)" />
    <path
       id="path43"
       transform="matrix(1.579 0 0 .71429 -5.895 27.929)"
       d="M10 40h28v7H10z"
       fill="url(#c)" />
  </g>
  <rect
     style="fill-opacity:1;fill:url(#linearGradient878)"
     id="rect47"
     color="#000"
     fill="url(#d)"
     x="4.5"
     y="4.5"
     width="55"
     height="55"
     ry="3"
     rx="3" />
  <rect
     id="rect49"
     fill="none"
     x="5.5"
     y="5.429"
     stroke-linecap="round"
     stroke="url(#e)"
     width="53"
     height="53.142"
     ry="2"
     rx="2"
     stroke-linejoin="round"
     opacity=".3" />
  <rect
     style="stroke:#452981;stroke-opacity:1"
     id="rect51"
     color="#000"
     fill="none"
     x="4.5"
     y="4.5"
     stroke-linecap="round"
     stroke="#05020d"
     width="55"
     height="55"
     ry="3"
     rx="3"
     stroke-linejoin="round"
     opacity=".5" />
  <path
     id="path53"
     color="#000"
     fill="#201c2c"
     d="M31.462 15.984c-1.35 0-2.705.166-4.06.493-1.335.31-2.624.752-3.866 1.326a20.767 20.767 0 0 0-3.467 2.002 1.016 1.016 0 0 0-.005.004 17.304 17.304 0 0 0-2.844 2.562 1.016 1.016 0 0 0-.006.008 12.544 12.544 0 0 0-1.95 3.012 1.016 1.016 0 0 0-.005.011 8.348 8.348 0 0 0-.729 3.373c0 .912.11 1.722.373 2.434a1.016 1.016 0 0 0 .008.021c.272.69.68 1.293 1.217 1.75a1.016 1.016 0 0 0 .014.012c.54.444 1.188.754 1.908.947a1.016 1.016 0 0 0 .023.006c.702.171 1.473.252 2.32.252a1.016 1.016 0 0 0 1.016-1.015c0-.376-.132-.636-.266-.85l.047.084a4.014 4.014 0 0 1-.148-.371c0-.001-.002 0-.002-.002a7.263 7.263 0 0 1-.178-.703 8.528 8.528 0 0 1-.072-1.236c0-2.366.542-4.247 1.588-5.75.797-1.131 1.9-1.962 3.17-2.653l.691 29.322a1.016 1.016 0 0 0 1.016.992h6.53a1.016 1.016 0 0 0 .952-.66l12.594-33.779a1.016 1.016 0 0 0-.951-1.37h-3.164a1.016 1.016 0 0 0-.961.685l-7.649 22.25-.314-22.066a1.016 1.016 0 0 0-.914-.996 18.86 18.86 0 0 0-.934-.07h-.002a18.748 18.748 0 0 0-.98-.024z"
     style="isolation:auto;mix-blend-mode:normal;fill:#452981;fill-opacity:1"
     opacity=".15" />
  <path
     id="path55"
     d="M27.255 50.999l-.73-30.967q-3.188 1.195-4.98 3.74-1.772 2.546-1.772 6.331 0 .863.089 1.417.11.531.221.863.111.31.2.487.11.177.11.31-1.173 0-2.08-.221-.908-.244-1.528-.753-.598-.508-.93-1.35-.31-.84-.31-2.08 0-1.505.641-2.966.664-1.46 1.793-2.767 1.151-1.305 2.679-2.412 1.55-1.107 3.298-1.904 1.77-.819 3.674-1.261Q29.556 17 31.46 17q.509 0 .93.022.442.022.884.066l.399 27.89 9.54-27.758h3.165L33.784 51h-6.53z"
     style="isolation:auto;mix-blend-mode:normal;fill:#452981;fill-opacity:1"
     fill="#201c2c"
     color="#000"
     opacity=".3" />
  <path
     id="path57"
     d="M27.255 49.999l-.73-30.967q-3.188 1.195-4.98 3.74-1.772 2.546-1.772 6.331 0 .863.089 1.417.11.531.221.863.111.31.2.487.11.177.11.31-1.173 0-2.08-.221-.908-.244-1.528-.753-.598-.508-.93-1.35-.31-.84-.31-2.08 0-1.505.641-2.966.664-1.46 1.793-2.767 1.151-1.305 2.679-2.412 1.55-1.107 3.298-1.904 1.77-.819 3.674-1.261Q29.556 16 31.46 16q.509 0 .93.022.442.022.884.066l.399 27.89 9.54-27.758h3.165L33.784 50h-6.53z"
     fill="#fff" />
</svg>
